<svg width="420" height="120" viewBox="0 0 420 120" xmlns="http://www.w3.org/2000/svg">
  <defs>
    <style>
      .navy { fill: #0B2242; }
      .red { fill: #CC1236; }
      .light { fill: #F7F8FA; }
      .word { font-family: -apple-system, BlinkMacSystemFont, 'Segoe UI', Roboto, Helvetica, Arial, sans-serif;
              font-weight: 800; font-size: 42px; }
    </style>
  </defs>
  <rect class="light" x="0" y="0" width="420" height="120" rx="16"/>
  <g transform="translate(16,16)">
    <rect class="navy" x="0" y="0" width="88" height="88" rx="18"/>
    <g transform="translate(14,12)">
      <path class="red" d="M10 56 V8 h18 c12 0 20 7 20 18 c0 9 -6 17 -15 18 l16 12 v10 l-20 -14 h-19z"/>
      <path class="light" d="M18 48 V16 h9 c8 0 12 4 12 10 c0 6 -4 10 -12 10 h-9z"/>
      <path class="red" d="M54 8 h14 v24 c0 16 -8 24 -22 24 h-8 v-12 h8 c6 0 8 -4 8 -12 V8z"/>
    </g>
    <text class="word navy" x="112" y="46">Peyton’s</text>
    <text class="word red" x="112" y="86">Picks</text>
  </g>
</svg>
